<svg xmlns="http://www.w3.org/2000/svg" xmlns:xlink="http://www.w3.org/1999/xlink" width="242" zoomAndPan="magnify" viewBox="0 0 181.5 127.500001" height="170" preserveAspectRatio="xMidYMid meet" version="1.0"><defs><g/><clipPath id="150a4d71fd"><path d="M 0.105469 0 L 180.863281 0 L 180.863281 126 L 0.105469 126 Z M 0.105469 0 " clip-rule="nonzero"/></clipPath></defs><path fill="#46c1bf" d="M 15.71875 2.375 L 165.078125 2.375 C 165.96875 2.375 166.851562 2.460938 167.726562 2.632812 C 168.601562 2.808594 169.449219 3.066406 170.273438 3.40625 C 171.097656 3.746094 171.878906 4.167969 172.621094 4.660156 C 173.363281 5.15625 174.046875 5.71875 174.679688 6.351562 C 175.308594 6.980469 175.871094 7.667969 176.367188 8.40625 C 176.863281 9.148438 177.28125 9.929688 177.621094 10.753906 C 177.964844 11.578125 178.222656 12.429688 178.394531 13.300781 C 178.570312 14.175781 178.65625 15.058594 178.65625 15.953125 L 178.65625 110.316406 C 178.65625 111.210938 178.570312 112.09375 178.394531 112.96875 C 178.222656 113.839844 177.964844 114.691406 177.621094 115.515625 C 177.28125 116.335938 176.863281 117.121094 176.367188 117.863281 C 175.871094 118.601562 175.308594 119.289062 174.679688 119.917969 C 174.046875 120.550781 173.363281 121.113281 172.621094 121.609375 C 171.878906 122.101562 171.097656 122.519531 170.273438 122.863281 C 169.449219 123.203125 168.601562 123.460938 167.726562 123.636719 C 166.851562 123.808594 165.96875 123.894531 165.078125 123.894531 L 15.71875 123.894531 C 14.828125 123.894531 13.945312 123.808594 13.070312 123.636719 C 12.195312 123.460938 11.347656 123.203125 10.523438 122.863281 C 9.699219 122.519531 8.917969 122.101562 8.175781 121.609375 C 7.433594 121.113281 6.75 120.550781 6.117188 119.917969 C 5.488281 119.289062 4.925781 118.601562 4.429688 117.863281 C 3.933594 117.121094 3.515625 116.335938 3.175781 115.515625 C 2.835938 114.691406 2.578125 113.839844 2.402344 112.96875 C 2.230469 112.09375 2.140625 111.210938 2.140625 110.316406 L 2.140625 15.953125 C 2.140625 15.058594 2.230469 14.175781 2.402344 13.300781 C 2.578125 12.429688 2.835938 11.578125 3.175781 10.753906 C 3.515625 9.929688 3.933594 9.148438 4.429688 8.40625 C 4.925781 7.667969 5.488281 6.980469 6.117188 6.351562 C 6.75 5.71875 7.433594 5.15625 8.175781 4.660156 C 8.917969 4.167969 9.699219 3.746094 10.523438 3.40625 C 11.347656 3.066406 12.195312 2.808594 13.070312 2.632812 C 13.945312 2.460938 14.828125 2.375 15.71875 2.375 Z M 15.71875 2.375 " fill-opacity="1" fill-rule="nonzero"/><g clip-path="url(#150a4d71fd)"><path stroke-linecap="round" transform="matrix(1.357795, 0, 0, 1.357795, -11.435793, -38.700045)" fill="none" stroke-linejoin="round" d="M 19.998994 30.251276 L 130.000374 30.251276 C 130.656308 30.251276 131.306489 30.314568 131.950916 30.441152 C 132.595343 30.570612 133.219632 30.760488 133.826659 31.010779 C 134.433686 31.26107 135.009067 31.571776 135.555679 31.934266 C 136.102291 32.299633 136.60575 32.713907 137.071809 33.179966 C 137.534991 33.643148 137.949265 34.149484 138.314632 34.693219 C 138.679999 35.239831 138.987828 35.815212 139.238119 36.422239 C 139.491287 37.029266 139.681163 37.656432 139.807746 38.297982 C 139.937207 38.942409 140.000499 39.59259 140.000499 40.251401 L 140.000499 109.748821 C 140.000499 110.407632 139.937207 111.057813 139.807746 111.70224 C 139.681163 112.34379 139.491287 112.970956 139.238119 113.577983 C 138.987828 114.182133 138.679999 114.760391 138.314632 115.307003 C 137.949265 115.850739 137.534991 116.357074 137.071809 116.820256 C 136.60575 117.286315 136.102291 117.700589 135.555679 118.065956 C 135.009067 118.428446 134.433686 118.736275 133.826659 118.989443 C 133.219632 119.239734 132.595343 119.42961 131.950916 119.559071 C 131.306489 119.685654 130.656308 119.748946 130.000374 119.748946 L 19.998994 119.748946 C 19.343059 119.748946 18.692878 119.685654 18.048451 119.559071 C 17.404024 119.42961 16.779736 119.239734 16.172709 118.989443 C 15.565681 118.736275 14.9903 118.428446 14.443688 118.065956 C 13.897076 117.700589 13.393617 117.286315 12.927559 116.820256 C 12.464377 116.357074 12.050102 115.850739 11.684735 115.307003 C 11.319368 114.760391 11.011539 114.182133 10.761248 113.577983 C 10.510958 112.970956 10.321082 112.34379 10.191621 111.70224 C 10.065037 111.057813 9.998868 110.407632 9.998868 109.748821 L 9.998868 40.251401 C 9.998868 39.59259 10.065037 38.942409 10.191621 38.297982 C 10.321082 37.656432 10.510958 37.029266 10.761248 36.422239 C 11.011539 35.815212 11.319368 35.239831 11.684735 34.693219 C 12.050102 34.149484 12.464377 33.643148 12.927559 33.179966 C 13.393617 32.713907 13.897076 32.299633 14.443688 31.934266 C 14.9903 31.571776 15.565681 31.26107 16.172709 31.010779 C 16.779736 30.760488 17.404024 30.570612 18.048451 30.441152 C 18.692878 30.314568 19.343059 30.251276 19.998994 30.251276 Z M 19.998994 30.251276 " stroke="#111111" stroke-width="3" stroke-opacity="1" stroke-miterlimit="4"/></g><path stroke-linecap="round" transform="matrix(1.357795, 0, 0, 1.357795, -11.435793, -38.700045)" fill-opacity="1" fill="#ffde59" fill-rule="nonzero" stroke-linejoin="round" d="M 27.829932 40.829659 C 27.829932 41.131735 27.801163 41.428056 27.740748 41.724377 C 27.68321 42.017822 27.596903 42.305512 27.481826 42.581695 C 27.36675 42.860755 27.225782 43.12543 27.058921 43.375721 C 26.892061 43.623135 26.702185 43.856165 26.489294 44.069056 C 26.276403 44.281947 26.043373 44.471822 25.793083 44.638683 C 25.545669 44.805544 25.280993 44.946512 25.001933 45.061588 C 24.72575 45.176664 24.43806 45.262972 24.144615 45.323387 C 23.848294 45.380925 23.551973 45.409694 23.249898 45.409694 C 22.950699 45.409694 22.651501 45.380925 22.35518 45.323387 C 22.061735 45.262972 21.774045 45.176664 21.497862 45.061588 C 21.218802 44.946512 20.954127 44.805544 20.706713 44.638683 C 20.456422 44.471822 20.223392 44.281947 20.010501 44.069056 C 19.79761 43.856165 19.607735 43.623135 19.440874 43.375721 C 19.274013 43.12543 19.133045 42.860755 19.017969 42.581695 C 18.902893 42.305512 18.816585 42.017822 18.759047 41.724377 C 18.698632 41.428056 18.669863 41.131735 18.669863 40.829659 C 18.669863 40.530461 18.698632 40.231263 18.759047 39.937819 C 18.816585 39.641497 18.902893 39.353807 19.017969 39.077624 C 19.133045 38.798564 19.274013 38.536765 19.440874 38.286474 C 19.607735 38.036184 19.79761 37.803154 20.010501 37.590263 C 20.223392 37.377372 20.456422 37.190373 20.706713 37.020636 C 20.954127 36.853775 21.218802 36.712807 21.497862 36.597731 C 21.774045 36.482654 22.061735 36.396347 22.35518 36.338809 C 22.651501 36.278394 22.950699 36.249625 23.249898 36.249625 C 23.551973 36.249625 23.848294 36.278394 24.144615 36.338809 C 24.43806 36.396347 24.72575 36.482654 25.001933 36.597731 C 25.280993 36.712807 25.545669 36.853775 25.793083 37.020636 C 26.043373 37.190373 26.276403 37.377372 26.489294 37.590263 C 26.702185 37.803154 26.892061 38.036184 27.058921 38.286474 C 27.225782 38.536765 27.36675 38.798564 27.481826 39.077624 C 27.596903 39.353807 27.68321 39.641497 27.740748 39.937819 C 27.801163 40.231263 27.829932 40.530461 27.829932 40.829659 Z M 27.829932 40.829659 " stroke="#111111" stroke-width="3" stroke-opacity="1" stroke-miterlimit="4"/><path stroke-linecap="round" transform="matrix(1.357795, 0, 0, 1.357795, -11.435793, -38.700045)" fill-opacity="1" fill="#ffde59" fill-rule="nonzero" stroke-linejoin="round" d="M 43.831284 40.829659 C 43.831284 41.131735 43.799638 41.428056 43.742099 41.724377 C 43.684561 42.017822 43.595377 42.305512 43.480301 42.581695 C 43.365225 42.860755 43.224256 43.12543 43.057396 43.375721 C 42.890535 43.623135 42.700659 43.856165 42.487768 44.069056 C 42.274877 44.281947 42.044725 44.471822 41.794434 44.638683 C 41.544143 44.805544 41.279468 44.946512 41.003285 45.061588 C 40.724225 45.176664 40.439411 45.262972 40.14309 45.323387 C 39.849646 45.380925 39.550447 45.409694 39.251249 45.409694 C 38.949174 45.409694 38.652853 45.380925 38.356531 45.323387 C 38.06021 45.262972 37.775396 45.176664 37.496336 45.061588 C 37.220153 44.946512 36.955478 44.805544 36.705187 44.638683 C 36.454896 44.471822 36.224744 44.281947 36.011853 44.069056 C 35.798962 43.856165 35.609086 43.623135 35.442225 43.375721 C 35.275365 43.12543 35.134396 42.860755 35.01932 42.581695 C 34.904244 42.305512 34.817937 42.017822 34.757522 41.724377 C 34.699984 41.428056 34.671215 41.131735 34.671215 40.829659 C 34.671215 40.530461 34.699984 40.231263 34.757522 39.937819 C 34.817937 39.641497 34.904244 39.353807 35.01932 39.077624 C 35.134396 38.798564 35.275365 38.536765 35.442225 38.286474 C 35.609086 38.036184 35.798962 37.803154 36.011853 37.590263 C 36.224744 37.377372 36.454896 37.190373 36.705187 37.020636 C 36.955478 36.853775 37.220153 36.712807 37.496336 36.597731 C 37.775396 36.482654 38.06021 36.396347 38.356531 36.338809 C 38.652853 36.278394 38.949174 36.249625 39.251249 36.249625 C 39.550447 36.249625 39.849646 36.278394 40.14309 36.338809 C 40.439411 36.396347 40.724225 36.482654 41.003285 36.597731 C 41.279468 36.712807 41.544143 36.853775 41.794434 37.020636 C 42.044725 37.190373 42.274877 37.377372 42.487768 37.590263 C 42.700659 37.803154 42.890535 38.036184 43.057396 38.286474 C 43.224256 38.536765 43.365225 38.798564 43.480301 39.077624 C 43.595377 39.353807 43.684561 39.641497 43.742099 39.937819 C 43.799638 40.231263 43.831284 40.530461 43.831284 40.829659 Z M 43.831284 40.829659 " stroke="#111111" stroke-width="3" stroke-opacity="1" stroke-miterlimit="4"/><path stroke-linecap="round" transform="matrix(1.357795, 0, 0, 1.357795, -11.435793, -38.700045)" fill-opacity="1" fill="#ffde59" fill-rule="nonzero" stroke-linejoin="round" d="M 59.159439 40.829659 C 59.159439 41.131735 59.13067 41.428056 59.073132 41.724377 C 59.012717 42.017822 58.92641 42.305512 58.811333 42.581695 C 58.696257 42.860755 58.555289 43.12543 58.388428 43.375721 C 58.221568 43.623135 58.031692 43.856165 57.818801 44.069056 C 57.60591 44.281947 57.375757 44.471822 57.125466 44.638683 C 56.875176 44.805544 56.6105 44.946512 56.33144 45.061588 C 56.055257 45.176664 55.767567 45.262972 55.474122 45.323387 C 55.177801 45.380925 54.88148 45.409694 54.579405 45.409694 C 54.280206 45.409694 53.981008 45.380925 53.687564 45.323387 C 53.391242 45.262972 53.106429 45.176664 52.827369 45.061588 C 52.548309 44.946512 52.28651 44.805544 52.03622 44.638683 C 51.785929 44.471822 51.552899 44.281947 51.342885 44.069056 C 51.129994 43.856165 50.940118 43.623135 50.773258 43.375721 C 50.60352 43.12543 50.462552 42.860755 50.347476 42.581695 C 50.232399 42.305512 50.146092 42.017822 50.088554 41.724377 C 50.028139 41.428056 49.99937 41.131735 49.99937 40.829659 C 49.99937 40.530461 50.028139 40.231263 50.088554 39.937819 C 50.146092 39.641497 50.232399 39.353807 50.347476 39.077624 C 50.462552 38.798564 50.60352 38.536765 50.773258 38.286474 C 50.940118 38.036184 51.129994 37.803154 51.342885 37.590263 C 51.552899 37.377372 51.785929 37.190373 52.03622 37.020636 C 52.28651 36.853775 52.548309 36.712807 52.827369 36.597731 C 53.106429 36.482654 53.391242 36.396347 53.687564 36.338809 C 53.981008 36.278394 54.280206 36.249625 54.579405 36.249625 C 54.88148 36.249625 55.177801 36.278394 55.474122 36.338809 C 55.767567 36.396347 56.055257 36.482654 56.33144 36.597731 C 56.6105 36.712807 56.875176 36.853775 57.125466 37.020636 C 57.375757 37.190373 57.60591 37.377372 57.818801 37.590263 C 58.031692 37.803154 58.221568 38.036184 58.388428 38.286474 C 58.555289 38.536765 58.696257 38.798564 58.811333 39.077624 C 58.92641 39.353807 59.012717 39.641497 59.073132 39.937819 C 59.13067 40.231263 59.159439 40.530461 59.159439 40.829659 Z M 59.159439 40.829659 " stroke="#111111" stroke-width="3" stroke-opacity="1" stroke-miterlimit="4"/><path stroke-linecap="round" transform="matrix(1.357795, 0, 0, 1.357795, -11.435793, -38.700045)" fill-opacity="1" fill="#ffde59" fill-rule="nonzero" stroke-linejoin="round" d="M 22.340795 52.501267 L 128.579182 52.501267 C 128.820842 52.501267 129.059625 52.524283 129.295532 52.570313 C 129.531438 52.616343 129.761591 52.688266 129.983112 52.780327 C 130.207511 52.872388 130.417525 52.984587 130.618909 53.119802 C 130.820292 53.25214 131.004414 53.404616 131.174151 53.574353 C 131.346766 53.744091 131.496365 53.93109 131.631579 54.132473 C 131.763917 54.33098 131.878993 54.543871 131.971054 54.765392 C 132.063115 54.986914 132.132161 55.217067 132.178192 55.452973 C 132.227099 55.691756 132.250114 55.927662 132.250114 56.169322 L 132.250114 108.330506 C 132.250114 108.572166 132.227099 108.81095 132.178192 109.046856 C 132.132161 109.282762 132.063115 109.512915 131.971054 109.734436 C 131.878993 109.955958 131.763917 110.168849 131.631579 110.370233 C 131.496365 110.568739 131.346766 110.755738 131.174151 110.925475 C 131.004414 111.095213 130.820292 111.247689 130.618909 111.382904 C 130.417525 111.515241 130.207511 111.627441 129.983112 111.719502 C 129.761591 111.811563 129.531438 111.883485 129.295532 111.929516 C 129.059625 111.975546 128.820842 111.998561 128.579182 112.001438 L 22.340795 112.001438 C 22.099135 111.998561 21.860352 111.975546 21.624446 111.929516 C 21.388539 111.883485 21.158387 111.811563 20.936865 111.719502 C 20.712466 111.627441 20.502452 111.515241 20.301069 111.382904 C 20.099685 111.247689 19.915563 111.095213 19.745826 110.925475 C 19.573212 110.755738 19.423613 110.568739 19.288398 110.370233 C 19.15606 110.168849 19.040984 109.955958 18.948923 109.734436 C 18.856862 109.512915 18.787816 109.282762 18.741786 109.046856 C 18.692878 108.81095 18.669863 108.572166 18.669863 108.330506 L 18.669863 56.169322 C 18.669863 55.927662 18.692878 55.691756 18.741786 55.452973 C 18.787816 55.217067 18.856862 54.986914 18.948923 54.765392 C 19.040984 54.543871 19.15606 54.33098 19.288398 54.132473 C 19.423613 53.93109 19.573212 53.744091 19.745826 53.574353 C 19.915563 53.404616 20.099685 53.25214 20.301069 53.119802 C 20.502452 52.984587 20.712466 52.872388 20.936865 52.780327 C 21.158387 52.688266 21.388539 52.616343 21.624446 52.570313 C 21.860352 52.524283 22.099135 52.501267 22.340795 52.501267 Z M 22.340795 52.501267 " stroke="#111111" stroke-width="3" stroke-opacity="1" stroke-miterlimit="4"/><g fill="#000000" fill-opacity="1"><g transform="translate(49.446523, 53.756324)"><g><path d="M 5.125 -11.953125 C 6.394531 -11.953125 7.351562 -11.425781 8 -10.375 C 8.644531 -9.320312 8.96875 -7.828125 8.96875 -5.890625 C 8.96875 -3.929688 8.644531 -2.425781 8 -1.375 C 7.351562 -0.320312 6.394531 0.203125 5.125 0.203125 C 3.863281 0.203125 2.90625 -0.320312 2.25 -1.375 C 1.59375 -2.425781 1.265625 -3.929688 1.265625 -5.890625 C 1.265625 -7.828125 1.59375 -9.320312 2.25 -10.375 C 2.90625 -11.425781 3.863281 -11.953125 5.125 -11.953125 Z M 5.125 -10.796875 C 4.394531 -10.796875 3.820312 -10.410156 3.40625 -9.640625 C 3 -8.878906 2.796875 -7.628906 2.796875 -5.890625 C 2.796875 -4.710938 2.875 -3.757812 3.03125 -3.03125 C 3.195312 -2.3125 3.453125 -1.785156 3.796875 -1.453125 C 4.148438 -1.128906 4.59375 -0.96875 5.125 -0.96875 C 5.613281 -0.96875 6.03125 -1.132812 6.375 -1.46875 C 6.726562 -1.800781 7 -2.332031 7.1875 -3.0625 C 7.375 -3.789062 7.46875 -4.734375 7.46875 -5.890625 C 7.46875 -7.054688 7.382812 -8 7.21875 -8.71875 C 7.050781 -9.445312 6.796875 -9.972656 6.453125 -10.296875 C 6.109375 -10.628906 5.664062 -10.796875 5.125 -10.796875 Z M 6.859375 -10.375 L 7.234375 -9.125 L 3.5 -1.546875 L 2.96875 -2.546875 Z M 6.859375 -10.375 "/></g></g></g><g fill="#000000" fill-opacity="1"><g transform="translate(59.683505, 53.756324)"><g><path d="M 6.375 -11.765625 L 6.375 -0.34375 L 4.9375 -0.34375 L 4.9375 -10.203125 L 2.25 -8.5625 L 1.625 -9.59375 L 5.125 -11.765625 Z M 8.84375 -1.171875 L 8.84375 0 L 2.046875 0 L 2.046875 -1.171875 Z M 8.84375 -1.171875 "/></g></g></g><g fill="#000000" fill-opacity="1"><g transform="translate(69.920486, 53.756324)"><g><path d="M 6.375 -11.765625 L 6.375 -0.34375 L 4.9375 -0.34375 L 4.9375 -10.203125 L 2.25 -8.5625 L 1.625 -9.59375 L 5.125 -11.765625 Z M 8.84375 -1.171875 L 8.84375 0 L 2.046875 0 L 2.046875 -1.171875 Z M 8.84375 -1.171875 "/></g></g></g><g fill="#000000" fill-opacity="1"><g transform="translate(80.157468, 53.756324)"><g><path d="M 5.125 -11.953125 C 6.394531 -11.953125 7.351562 -11.425781 8 -10.375 C 8.644531 -9.320312 8.96875 -7.828125 8.96875 -5.890625 C 8.96875 -3.929688 8.644531 -2.425781 8 -1.375 C 7.351562 -0.320312 6.394531 0.203125 5.125 0.203125 C 3.863281 0.203125 2.90625 -0.320312 2.25 -1.375 C 1.59375 -2.425781 1.265625 -3.929688 1.265625 -5.890625 C 1.265625 -7.828125 1.59375 -9.320312 2.25 -10.375 C 2.90625 -11.425781 3.863281 -11.953125 5.125 -11.953125 Z M 5.125 -10.796875 C 4.394531 -10.796875 3.820312 -10.410156 3.40625 -9.640625 C 3 -8.878906 2.796875 -7.628906 2.796875 -5.890625 C 2.796875 -4.710938 2.875 -3.757812 3.03125 -3.03125 C 3.195312 -2.3125 3.453125 -1.785156 3.796875 -1.453125 C 4.148438 -1.128906 4.59375 -0.96875 5.125 -0.96875 C 5.613281 -0.96875 6.03125 -1.132812 6.375 -1.46875 C 6.726562 -1.800781 7 -2.332031 7.1875 -3.0625 C 7.375 -3.789062 7.46875 -4.734375 7.46875 -5.890625 C 7.46875 -7.054688 7.382812 -8 7.21875 -8.71875 C 7.050781 -9.445312 6.796875 -9.972656 6.453125 -10.296875 C 6.109375 -10.628906 5.664062 -10.796875 5.125 -10.796875 Z M 6.859375 -10.375 L 7.234375 -9.125 L 3.5 -1.546875 L 2.96875 -2.546875 Z M 6.859375 -10.375 "/></g></g></g><g fill="#000000" fill-opacity="1"><g transform="translate(90.394449, 53.756324)"><g><path d="M 5.125 -11.953125 C 6.394531 -11.953125 7.351562 -11.425781 8 -10.375 C 8.644531 -9.320312 8.96875 -7.828125 8.96875 -5.890625 C 8.96875 -3.929688 8.644531 -2.425781 8 -1.375 C 7.351562 -0.320312 6.394531 0.203125 5.125 0.203125 C 3.863281 0.203125 2.90625 -0.320312 2.25 -1.375 C 1.59375 -2.425781 1.265625 -3.929688 1.265625 -5.890625 C 1.265625 -7.828125 1.59375 -9.320312 2.25 -10.375 C 2.90625 -11.425781 3.863281 -11.953125 5.125 -11.953125 Z M 5.125 -10.796875 C 4.394531 -10.796875 3.820312 -10.410156 3.40625 -9.640625 C 3 -8.878906 2.796875 -7.628906 2.796875 -5.890625 C 2.796875 -4.710938 2.875 -3.757812 3.03125 -3.03125 C 3.195312 -2.3125 3.453125 -1.785156 3.796875 -1.453125 C 4.148438 -1.128906 4.59375 -0.96875 5.125 -0.96875 C 5.613281 -0.96875 6.03125 -1.132812 6.375 -1.46875 C 6.726562 -1.800781 7 -2.332031 7.1875 -3.0625 C 7.375 -3.789062 7.46875 -4.734375 7.46875 -5.890625 C 7.46875 -7.054688 7.382812 -8 7.21875 -8.71875 C 7.050781 -9.445312 6.796875 -9.972656 6.453125 -10.296875 C 6.109375 -10.628906 5.664062 -10.796875 5.125 -10.796875 Z M 6.859375 -10.375 L 7.234375 -9.125 L 3.5 -1.546875 L 2.96875 -2.546875 Z M 6.859375 -10.375 "/></g></g></g><g fill="#000000" fill-opacity="1"><g transform="translate(100.63143, 53.756324)"><g><path d="M 5.125 -11.953125 C 6.394531 -11.953125 7.351562 -11.425781 8 -10.375 C 8.644531 -9.320312 8.96875 -7.828125 8.96875 -5.890625 C 8.96875 -3.929688 8.644531 -2.425781 8 -1.375 C 7.351562 -0.320312 6.394531 0.203125 5.125 0.203125 C 3.863281 0.203125 2.90625 -0.320312 2.25 -1.375 C 1.59375 -2.425781 1.265625 -3.929688 1.265625 -5.890625 C 1.265625 -7.828125 1.59375 -9.320312 2.25 -10.375 C 2.90625 -11.425781 3.863281 -11.953125 5.125 -11.953125 Z M 5.125 -10.796875 C 4.394531 -10.796875 3.820312 -10.410156 3.40625 -9.640625 C 3 -8.878906 2.796875 -7.628906 2.796875 -5.890625 C 2.796875 -4.710938 2.875 -3.757812 3.03125 -3.03125 C 3.195312 -2.3125 3.453125 -1.785156 3.796875 -1.453125 C 4.148438 -1.128906 4.59375 -0.96875 5.125 -0.96875 C 5.613281 -0.96875 6.03125 -1.132812 6.375 -1.46875 C 6.726562 -1.800781 7 -2.332031 7.1875 -3.0625 C 7.375 -3.789062 7.46875 -4.734375 7.46875 -5.890625 C 7.46875 -7.054688 7.382812 -8 7.21875 -8.71875 C 7.050781 -9.445312 6.796875 -9.972656 6.453125 -10.296875 C 6.109375 -10.628906 5.664062 -10.796875 5.125 -10.796875 Z M 6.859375 -10.375 L 7.234375 -9.125 L 3.5 -1.546875 L 2.96875 -2.546875 Z M 6.859375 -10.375 "/></g></g></g><g fill="#000000" fill-opacity="1"><g transform="translate(110.868412, 53.756324)"><g><path d="M 5.125 -11.953125 C 6.394531 -11.953125 7.351562 -11.425781 8 -10.375 C 8.644531 -9.320312 8.96875 -7.828125 8.96875 -5.890625 C 8.96875 -3.929688 8.644531 -2.425781 8 -1.375 C 7.351562 -0.320312 6.394531 0.203125 5.125 0.203125 C 3.863281 0.203125 2.90625 -0.320312 2.25 -1.375 C 1.59375 -2.425781 1.265625 -3.929688 1.265625 -5.890625 C 1.265625 -7.828125 1.59375 -9.320312 2.25 -10.375 C 2.90625 -11.425781 3.863281 -11.953125 5.125 -11.953125 Z M 5.125 -10.796875 C 4.394531 -10.796875 3.820312 -10.410156 3.40625 -9.640625 C 3 -8.878906 2.796875 -7.628906 2.796875 -5.890625 C 2.796875 -4.710938 2.875 -3.757812 3.03125 -3.03125 C 3.195312 -2.3125 3.453125 -1.785156 3.796875 -1.453125 C 4.148438 -1.128906 4.59375 -0.96875 5.125 -0.96875 C 5.613281 -0.96875 6.03125 -1.132812 6.375 -1.46875 C 6.726562 -1.800781 7 -2.332031 7.1875 -3.0625 C 7.375 -3.789062 7.46875 -4.734375 7.46875 -5.890625 C 7.46875 -7.054688 7.382812 -8 7.21875 -8.71875 C 7.050781 -9.445312 6.796875 -9.972656 6.453125 -10.296875 C 6.109375 -10.628906 5.664062 -10.796875 5.125 -10.796875 Z M 6.859375 -10.375 L 7.234375 -9.125 L 3.5 -1.546875 L 2.96875 -2.546875 Z M 6.859375 -10.375 "/></g></g></g><g fill="#000000" fill-opacity="1"><g transform="translate(121.105393, 53.756324)"><g><path d="M 6.375 -11.765625 L 6.375 -0.34375 L 4.9375 -0.34375 L 4.9375 -10.203125 L 2.25 -8.5625 L 1.625 -9.59375 L 5.125 -11.765625 Z M 8.84375 -1.171875 L 8.84375 0 L 2.046875 0 L 2.046875 -1.171875 Z M 8.84375 -1.171875 "/></g></g></g><g fill="#000000" fill-opacity="1"><g transform="translate(49.446523, 77.365758)"><g><path d="M 5.125 -11.953125 C 6.394531 -11.953125 7.351562 -11.425781 8 -10.375 C 8.644531 -9.320312 8.96875 -7.828125 8.96875 -5.890625 C 8.96875 -3.929688 8.644531 -2.425781 8 -1.375 C 7.351562 -0.320312 6.394531 0.203125 5.125 0.203125 C 3.863281 0.203125 2.90625 -0.320312 2.25 -1.375 C 1.59375 -2.425781 1.265625 -3.929688 1.265625 -5.890625 C 1.265625 -7.828125 1.59375 -9.320312 2.25 -10.375 C 2.90625 -11.425781 3.863281 -11.953125 5.125 -11.953125 Z M 5.125 -10.796875 C 4.394531 -10.796875 3.820312 -10.410156 3.40625 -9.640625 C 3 -8.878906 2.796875 -7.628906 2.796875 -5.890625 C 2.796875 -4.710938 2.875 -3.757812 3.03125 -3.03125 C 3.195312 -2.3125 3.453125 -1.785156 3.796875 -1.453125 C 4.148438 -1.128906 4.59375 -0.96875 5.125 -0.96875 C 5.613281 -0.96875 6.03125 -1.132812 6.375 -1.46875 C 6.726562 -1.800781 7 -2.332031 7.1875 -3.0625 C 7.375 -3.789062 7.46875 -4.734375 7.46875 -5.890625 C 7.46875 -7.054688 7.382812 -8 7.21875 -8.71875 C 7.050781 -9.445312 6.796875 -9.972656 6.453125 -10.296875 C 6.109375 -10.628906 5.664062 -10.796875 5.125 -10.796875 Z M 6.859375 -10.375 L 7.234375 -9.125 L 3.5 -1.546875 L 2.96875 -2.546875 Z M 6.859375 -10.375 "/></g></g></g><g fill="#000000" fill-opacity="1"><g transform="translate(59.683505, 77.365758)"><g><path d="M 6.375 -11.765625 L 6.375 -0.34375 L 4.9375 -0.34375 L 4.9375 -10.203125 L 2.25 -8.5625 L 1.625 -9.59375 L 5.125 -11.765625 Z M 8.84375 -1.171875 L 8.84375 0 L 2.046875 0 L 2.046875 -1.171875 Z M 8.84375 -1.171875 "/></g></g></g><g fill="#000000" fill-opacity="1"><g transform="translate(69.920486, 77.365758)"><g><path d="M 6.375 -11.765625 L 6.375 -0.34375 L 4.9375 -0.34375 L 4.9375 -10.203125 L 2.25 -8.5625 L 1.625 -9.59375 L 5.125 -11.765625 Z M 8.84375 -1.171875 L 8.84375 0 L 2.046875 0 L 2.046875 -1.171875 Z M 8.84375 -1.171875 "/></g></g></g><g fill="#000000" fill-opacity="1"><g transform="translate(80.157468, 77.365758)"><g><path d="M 5.125 -11.953125 C 6.394531 -11.953125 7.351562 -11.425781 8 -10.375 C 8.644531 -9.320312 8.96875 -7.828125 8.96875 -5.890625 C 8.96875 -3.929688 8.644531 -2.425781 8 -1.375 C 7.351562 -0.320312 6.394531 0.203125 5.125 0.203125 C 3.863281 0.203125 2.90625 -0.320312 2.25 -1.375 C 1.59375 -2.425781 1.265625 -3.929688 1.265625 -5.890625 C 1.265625 -7.828125 1.59375 -9.320312 2.25 -10.375 C 2.90625 -11.425781 3.863281 -11.953125 5.125 -11.953125 Z M 5.125 -10.796875 C 4.394531 -10.796875 3.820312 -10.410156 3.40625 -9.640625 C 3 -8.878906 2.796875 -7.628906 2.796875 -5.890625 C 2.796875 -4.710938 2.875 -3.757812 3.03125 -3.03125 C 3.195312 -2.3125 3.453125 -1.785156 3.796875 -1.453125 C 4.148438 -1.128906 4.59375 -0.96875 5.125 -0.96875 C 5.613281 -0.96875 6.03125 -1.132812 6.375 -1.46875 C 6.726562 -1.800781 7 -2.332031 7.1875 -3.0625 C 7.375 -3.789062 7.46875 -4.734375 7.46875 -5.890625 C 7.46875 -7.054688 7.382812 -8 7.21875 -8.71875 C 7.050781 -9.445312 6.796875 -9.972656 6.453125 -10.296875 C 6.109375 -10.628906 5.664062 -10.796875 5.125 -10.796875 Z M 6.859375 -10.375 L 7.234375 -9.125 L 3.5 -1.546875 L 2.96875 -2.546875 Z M 6.859375 -10.375 "/></g></g></g><g fill="#000000" fill-opacity="1"><g transform="translate(90.394449, 77.365758)"><g><path d="M 6.375 -11.765625 L 6.375 -0.34375 L 4.9375 -0.34375 L 4.9375 -10.203125 L 2.25 -8.5625 L 1.625 -9.59375 L 5.125 -11.765625 Z M 8.84375 -1.171875 L 8.84375 0 L 2.046875 0 L 2.046875 -1.171875 Z M 8.84375 -1.171875 "/></g></g></g><g fill="#000000" fill-opacity="1"><g transform="translate(100.63143, 77.365758)"><g><path d="M 6.375 -11.765625 L 6.375 -0.34375 L 4.9375 -0.34375 L 4.9375 -10.203125 L 2.25 -8.5625 L 1.625 -9.59375 L 5.125 -11.765625 Z M 8.84375 -1.171875 L 8.84375 0 L 2.046875 0 L 2.046875 -1.171875 Z M 8.84375 -1.171875 "/></g></g></g><g fill="#000000" fill-opacity="1"><g transform="translate(110.868412, 77.365758)"><g><path d="M 6.375 -11.765625 L 6.375 -0.34375 L 4.9375 -0.34375 L 4.9375 -10.203125 L 2.25 -8.5625 L 1.625 -9.59375 L 5.125 -11.765625 Z M 8.84375 -1.171875 L 8.84375 0 L 2.046875 0 L 2.046875 -1.171875 Z M 8.84375 -1.171875 "/></g></g></g><g fill="#000000" fill-opacity="1"><g transform="translate(121.105393, 77.365758)"><g><path d="M 5.125 -11.953125 C 6.394531 -11.953125 7.351562 -11.425781 8 -10.375 C 8.644531 -9.320312 8.96875 -7.828125 8.96875 -5.890625 C 8.96875 -3.929688 8.644531 -2.425781 8 -1.375 C 7.351562 -0.320312 6.394531 0.203125 5.125 0.203125 C 3.863281 0.203125 2.90625 -0.320312 2.25 -1.375 C 1.59375 -2.425781 1.265625 -3.929688 1.265625 -5.890625 C 1.265625 -7.828125 1.59375 -9.320312 2.25 -10.375 C 2.90625 -11.425781 3.863281 -11.953125 5.125 -11.953125 Z M 5.125 -10.796875 C 4.394531 -10.796875 3.820312 -10.410156 3.40625 -9.640625 C 3 -8.878906 2.796875 -7.628906 2.796875 -5.890625 C 2.796875 -4.710938 2.875 -3.757812 3.03125 -3.03125 C 3.195312 -2.3125 3.453125 -1.785156 3.796875 -1.453125 C 4.148438 -1.128906 4.59375 -0.96875 5.125 -0.96875 C 5.613281 -0.96875 6.03125 -1.132812 6.375 -1.46875 C 6.726562 -1.800781 7 -2.332031 7.1875 -3.0625 C 7.375 -3.789062 7.46875 -4.734375 7.46875 -5.890625 C 7.46875 -7.054688 7.382812 -8 7.21875 -8.71875 C 7.050781 -9.445312 6.796875 -9.972656 6.453125 -10.296875 C 6.109375 -10.628906 5.664062 -10.796875 5.125 -10.796875 Z M 6.859375 -10.375 L 7.234375 -9.125 L 3.5 -1.546875 L 2.96875 -2.546875 Z M 6.859375 -10.375 "/></g></g></g><g fill="#000000" fill-opacity="1"><g transform="translate(49.446523, 100.975191)"><g><path d="M 5.125 -11.953125 C 6.394531 -11.953125 7.351562 -11.425781 8 -10.375 C 8.644531 -9.320312 8.96875 -7.828125 8.96875 -5.890625 C 8.96875 -3.929688 8.644531 -2.425781 8 -1.375 C 7.351562 -0.320312 6.394531 0.203125 5.125 0.203125 C 3.863281 0.203125 2.90625 -0.320312 2.25 -1.375 C 1.59375 -2.425781 1.265625 -3.929688 1.265625 -5.890625 C 1.265625 -7.828125 1.59375 -9.320312 2.25 -10.375 C 2.90625 -11.425781 3.863281 -11.953125 5.125 -11.953125 Z M 5.125 -10.796875 C 4.394531 -10.796875 3.820312 -10.410156 3.40625 -9.640625 C 3 -8.878906 2.796875 -7.628906 2.796875 -5.890625 C 2.796875 -4.710938 2.875 -3.757812 3.03125 -3.03125 C 3.195312 -2.3125 3.453125 -1.785156 3.796875 -1.453125 C 4.148438 -1.128906 4.59375 -0.96875 5.125 -0.96875 C 5.613281 -0.96875 6.03125 -1.132812 6.375 -1.46875 C 6.726562 -1.800781 7 -2.332031 7.1875 -3.0625 C 7.375 -3.789062 7.46875 -4.734375 7.46875 -5.890625 C 7.46875 -7.054688 7.382812 -8 7.21875 -8.71875 C 7.050781 -9.445312 6.796875 -9.972656 6.453125 -10.296875 C 6.109375 -10.628906 5.664062 -10.796875 5.125 -10.796875 Z M 6.859375 -10.375 L 7.234375 -9.125 L 3.5 -1.546875 L 2.96875 -2.546875 Z M 6.859375 -10.375 "/></g></g></g><g fill="#000000" fill-opacity="1"><g transform="translate(59.683505, 100.975191)"><g><path d="M 6.375 -11.765625 L 6.375 -0.34375 L 4.9375 -0.34375 L 4.9375 -10.203125 L 2.25 -8.5625 L 1.625 -9.59375 L 5.125 -11.765625 Z M 8.84375 -1.171875 L 8.84375 0 L 2.046875 0 L 2.046875 -1.171875 Z M 8.84375 -1.171875 "/></g></g></g><g fill="#000000" fill-opacity="1"><g transform="translate(69.920486, 100.975191)"><g><path d="M 6.375 -11.765625 L 6.375 -0.34375 L 4.9375 -0.34375 L 4.9375 -10.203125 L 2.25 -8.5625 L 1.625 -9.59375 L 5.125 -11.765625 Z M 8.84375 -1.171875 L 8.84375 0 L 2.046875 0 L 2.046875 -1.171875 Z M 8.84375 -1.171875 "/></g></g></g><g fill="#000000" fill-opacity="1"><g transform="translate(80.157468, 100.975191)"><g><path d="M 6.375 -11.765625 L 6.375 -0.34375 L 4.9375 -0.34375 L 4.9375 -10.203125 L 2.25 -8.5625 L 1.625 -9.59375 L 5.125 -11.765625 Z M 8.84375 -1.171875 L 8.84375 0 L 2.046875 0 L 2.046875 -1.171875 Z M 8.84375 -1.171875 "/></g></g></g><g fill="#000000" fill-opacity="1"><g transform="translate(90.394449, 100.975191)"><g><path d="M 5.125 -11.953125 C 6.394531 -11.953125 7.351562 -11.425781 8 -10.375 C 8.644531 -9.320312 8.96875 -7.828125 8.96875 -5.890625 C 8.96875 -3.929688 8.644531 -2.425781 8 -1.375 C 7.351562 -0.320312 6.394531 0.203125 5.125 0.203125 C 3.863281 0.203125 2.90625 -0.320312 2.25 -1.375 C 1.59375 -2.425781 1.265625 -3.929688 1.265625 -5.890625 C 1.265625 -7.828125 1.59375 -9.320312 2.25 -10.375 C 2.90625 -11.425781 3.863281 -11.953125 5.125 -11.953125 Z M 5.125 -10.796875 C 4.394531 -10.796875 3.820312 -10.410156 3.40625 -9.640625 C 3 -8.878906 2.796875 -7.628906 2.796875 -5.890625 C 2.796875 -4.710938 2.875 -3.757812 3.03125 -3.03125 C 3.195312 -2.3125 3.453125 -1.785156 3.796875 -1.453125 C 4.148438 -1.128906 4.59375 -0.96875 5.125 -0.96875 C 5.613281 -0.96875 6.03125 -1.132812 6.375 -1.46875 C 6.726562 -1.800781 7 -2.332031 7.1875 -3.0625 C 7.375 -3.789062 7.46875 -4.734375 7.46875 -5.890625 C 7.46875 -7.054688 7.382812 -8 7.21875 -8.71875 C 7.050781 -9.445312 6.796875 -9.972656 6.453125 -10.296875 C 6.109375 -10.628906 5.664062 -10.796875 5.125 -10.796875 Z M 6.859375 -10.375 L 7.234375 -9.125 L 3.5 -1.546875 L 2.96875 -2.546875 Z M 6.859375 -10.375 "/></g></g></g><g fill="#000000" fill-opacity="1"><g transform="translate(100.63143, 100.975191)"><g><path d="M 5.125 -11.953125 C 6.394531 -11.953125 7.351562 -11.425781 8 -10.375 C 8.644531 -9.320312 8.96875 -7.828125 8.96875 -5.890625 C 8.96875 -3.929688 8.644531 -2.425781 8 -1.375 C 7.351562 -0.320312 6.394531 0.203125 5.125 0.203125 C 3.863281 0.203125 2.90625 -0.320312 2.25 -1.375 C 1.59375 -2.425781 1.265625 -3.929688 1.265625 -5.890625 C 1.265625 -7.828125 1.59375 -9.320312 2.25 -10.375 C 2.90625 -11.425781 3.863281 -11.953125 5.125 -11.953125 Z M 5.125 -10.796875 C 4.394531 -10.796875 3.820312 -10.410156 3.40625 -9.640625 C 3 -8.878906 2.796875 -7.628906 2.796875 -5.890625 C 2.796875 -4.710938 2.875 -3.757812 3.03125 -3.03125 C 3.195312 -2.3125 3.453125 -1.785156 3.796875 -1.453125 C 4.148438 -1.128906 4.59375 -0.96875 5.125 -0.96875 C 5.613281 -0.96875 6.03125 -1.132812 6.375 -1.46875 C 6.726562 -1.800781 7 -2.332031 7.1875 -3.0625 C 7.375 -3.789062 7.46875 -4.734375 7.46875 -5.890625 C 7.46875 -7.054688 7.382812 -8 7.21875 -8.71875 C 7.050781 -9.445312 6.796875 -9.972656 6.453125 -10.296875 C 6.109375 -10.628906 5.664062 -10.796875 5.125 -10.796875 Z M 6.859375 -10.375 L 7.234375 -9.125 L 3.5 -1.546875 L 2.96875 -2.546875 Z M 6.859375 -10.375 "/></g></g></g><g fill="#000000" fill-opacity="1"><g transform="translate(110.868412, 100.975191)"><g><path d="M 6.375 -11.765625 L 6.375 -0.34375 L 4.9375 -0.34375 L 4.9375 -10.203125 L 2.25 -8.5625 L 1.625 -9.59375 L 5.125 -11.765625 Z M 8.84375 -1.171875 L 8.84375 0 L 2.046875 0 L 2.046875 -1.171875 Z M 8.84375 -1.171875 "/></g></g></g><g fill="#000000" fill-opacity="1"><g transform="translate(121.105393, 100.975191)"><g><path d="M 6.375 -11.765625 L 6.375 -0.34375 L 4.9375 -0.34375 L 4.9375 -10.203125 L 2.25 -8.5625 L 1.625 -9.59375 L 5.125 -11.765625 Z M 8.84375 -1.171875 L 8.84375 0 L 2.046875 0 L 2.046875 -1.171875 Z M 8.84375 -1.171875 "/></g></g></g></svg>